#!OML:ASF H:\Punching\Project 1\Capture day 1\Session 1\female.ASF
:FULLY-SPECIFIED
:DEGREES
2978
root -1.26494 15.7073 -6.01361 15.5749 -4.47494 -2.08554
lowerback -5.39594 -1.98959 1.57544
upperback -6.25651 -2.70839 0.342409
thorax -3.49299 -1.42077 -0.586125
lowerneck -14.3087 6.41753 13.0166
upperneck 33.5765 7.08469 -4.37063
head 14.6928 4.10454 -2.8462
rclavicle 3.50645e-014 -7.55382e-015
rhumerus -37.4293 -2.00308 -80.4742
rradius 23.395
rwrist 16.0043
rhand -7.3005 -7.0482
rfingers 7.12502
rthumb 18.5818 -36.1807
lclavicle 3.50645e-014 -7.55382e-015
lhumerus -31.2733 -12.5819 97.923
lradius 43.7831
lwrist -18.2616
lhand -5.08942 9.32005
lfingers 7.12502
lthumb 20.7075 38.2353
rfemur -23.2219 4.62701 24.5487
rtibia 27.7794
rfoot -18.0967 -19.5566
rtoes 4.27058
lfemur -27.6521 -3.18675 -23.7772
ltibia 35.0157
lfoot -25.649 25.7318
ltoes 3.93816
2979
root -1.26305 15.7072 -6.00111 15.6365 -4.65252 -2.09783
lowerback -5.57752 -1.97005 1.61235
upperback -6.26895 -2.68651 0.359128
thorax -3.40519 -1.41078 -0.59594
lowerneck -14.2589 6.45885 13.0798
upperneck 33.5472 7.13688 -4.38201
head 14.6788 4.13328 -2.85267
rclavicle 2.75127e-014 -7.95139e-016
rhumerus -37.3354 -1.84794 -80.2448
rradius 23.4398
rwrist 15.7431
rhand -7.52826 -7.26598
rfingers 7.12502
rthumb 18.3627 -36.4193
lclavicle 2.75127e-014 -7.95139e-016
lhumerus -31.588 -13.818 98.7473
lradius 44.6195
lwrist -18.2695
lhand -5.13901 9.09881
lfingers 7.12502
lthumb 20.6598 38.0192
rfemur -23.2343 4.63686 24.5325
rtibia 27.7538
rfoot -18.1416 -19.397
rtoes 4.22693
lfemur -27.6408 -3.58168 -23.5918
ltibia 34.7958
lfoot -25.5294 25.0535
ltoes 2.90737
2980
root -1.26058 15.7065 -5.9867 15.7058 -4.85248 -2.1055
lowerback -5.77581 -1.93583 1.63945
upperback -6.2911 -2.64532 0.369208
thorax -3.31771 -1.39094 -0.606945
lowerneck -14.2062 6.4905 13.1393
upperneck 33.5389 7.17239 -4.38064
head 14.6712 4.15664 -2.85659
rclavicle 2.62814e-014 1.23246e-014
rhumerus -37.2369 -1.79218 -79.9608
rradius 23.4391
rwrist 15.5877
rhand -7.82923 -7.34744
rfingers 7.12502
rthumb 18.0731 -36.5278
lclavicle 2.62814e-014 1.23246e-014
lhumerus -31.9194 -15.002 99.5115
lradius 45.4515
lwrist -18.2486
lhand -5.08237 8.8793
lfingers 7.12502
lthumb 20.7143 37.7938
rfemur -23.2649 4.63106 24.5081
rtibia 27.7522
rfoot -18.1938 -19.2062
rtoes 4.15405
lfemur -27.5999 -4.00078 -23.417
ltibia 34.5069
lfoot -25.4454 24.5143
ltoes 2.26014
2981
root -1.25759 15.7055 -5.97091 15.7741 -5.06418 -2.11028
lowerback -5.97398 -1.89164 1.65877
upperback -6.32218 -2.59076 0.37462
thorax -3.23926 -1.36428 -0.617593
lowerneck -14.1441 6.51285 13.1926
upperneck 33.5459 7.1935 -4.36704
head 14.6659 4.17519 -2.85745
rclavicle 8.74808e-015 -2.48481e-014
rhumerus -37.1371 -1.8122 -79.6377
rradius 23.4017
rwrist 15.5099
rhand -8.29044 -7.25816
rfingers 7.12502
rthumb 17.6294 -36.4789
lclavicle 8.74808e-015 -2.48481e-014
lhumerus -32.2582 -16.1092 100.208
lradius 46.2719
lwrist -18.1466
lhand -4.8702 8.662
lfingers 7.12502
lthumb 20.9181 37.5541
rfemur -23.301 4.61612 24.4779
rtibia 27.768
rfoot -18.2506 -18.9985
rtoes 4.06667
lfemur -27.5272 -4.43678 -23.2527
ltibia 34.1716
lfoot -25.3662 24.1497
ltoes 1.92181
2982
root -1.25412 15.704 -5.95394 15.8383 -5.28439 -2.11608
lowerback -6.16707 -1.83957 1.67376
upperback -6.35949 -2.52556 0.377233
thorax -3.16989 -1.33226 -0.627756
lowerneck -14.075 6.52699 13.2388
upperneck 33.5658 7.20202 -4.34225
head 14.6628 4.18934 -2.8551
rclavicle -6.58707e-015 -9.93923e-015
rhumerus -37.0289 -1.91256 -79.2741
rradius 23.3356
rwrist 15.5355
rhand -8.84538 -7.03297
rfingers 7.12502
rthumb 17.0953 -36.3008
lclavicle -6.58707e-015 -9.93923e-015
lhumerus -32.5942 -17.1422 100.834
lradius 47.0753
lwrist -17.9357
lhand -4.49655 8.46331
lfingers 7.12502
lthumb 21.2771 37.3154
rfemur -23.3372 4.60463 24.4453
rtibia 27.7978
rfoot -18.309 -18.7883
rtoes 3.96428
lfemur -27.4247 -4.86313 -23.102
ltibia 33.8138
lfoot -25.276 23.9535
ltoes 1.89664
2983
root -1.25006 15.702 -5.93604 15.8906 -5.50811 -2.12613
lowerback -6.34927 -1.78268 1.6874
upperback -6.39703 -2.45374 0.380608
thorax -3.10663 -1.29685 -0.635438
lowerneck -14.0045 6.53631 13.2819
upperneck 33.5954 7.20512 -4.31805
head 14.663 4.20097 -2.85366
rclavicle -6.55477e-014 2.38542e-015
rhumerus -36.9106 -2.07021 -78.8805
rradius 23.2512
rwrist 15.6326
rhand -9.37104 -6.80331
rfingers 7.12502
rthumb 16.5892 -36.1143
lclavicle -6.55477e-014 2.38542e-015
lhumerus -32.922 -18.0825 101.391
lradius 47.8653
lwrist -17.6032
lhand -3.96247 8.31738
lfingers 7.12502
lthumb 21.79 37.1108
rfemur -23.3605 4.59442 24.4149
rtibia 27.8334
rfoot -18.3653 -18.5793
rtoes 3.84635
lfemur -27.284 -5.24587 -22.9751
ltibia 33.4588
lfoot -25.1858 23.9081
ltoes 2.1534
2984
root -1.24541 15.6996 -5.91743 15.9298 -5.73073 -2.14236
lowerback -6.51258 -1.72423 1.69993
upperback -6.43584 -2.3794 0.388217
thorax -3.05495 -1.2601 -0.637017
lowerneck -13.9325 6.54335 13.3224
upperneck 33.634 7.20707 -4.2961
head 14.6669 4.21172 -2.85309
rclavicle 3.43369e-015 5.96354e-015
rhumerus -36.7773 -2.27428 -78.4641
rradius 23.1276
rwrist 15.7991
rhand -9.99643 -6.47208
rfingers 7.12502
rthumb 15.9871 -35.8324
lclavicle 3.43369e-015 5.96354e-015
lhumerus -33.2415 -18.9244 101.88
lradius 48.609
lwrist -17.1866
lhand -3.36417 8.182
lfingers 7.12502
lthumb 22.3644 36.9075
rfemur -23.3664 4.59251 24.3886
rtibia 27.87
rfoot -18.4203 -18.3812
rtoes 3.72171
lfemur -27.1093 -5.55244 -22.8819
ltibia 33.1255
lfoot -25.0882 23.9723
ltoes 2.61031
2985
root -1.24009 15.697 -5.89826 15.9452 -5.94875 -2.16442
lowerback -6.64615 -1.66652 1.71077
upperback -6.47259 -2.30535 0.400824
thorax -3.0174 -1.22334 -0.631236
lowerneck -13.8668 6.5502 13.3626
upperneck 33.6867 7.21055 -4.28023
head 14.679 4.22255 -2.85479
rclavicle -4.46334e-015 -1.11319e-014
rhumerus -36.6347 -2.51577 -78.0273
rradius 22.9959
rwrist 16.0153
rhand -10.3339 -6.38682
rfingers 7.12502
rthumb 15.6621 -35.7729
lclavicle -4.46334e-015 -1.11319e-014
lhumerus -33.5628 -19.6678 102.308
lradius 49.3514
lwrist -16.664
lhand -2.67732 8.16121
lfingers 7.12502
lthumb 23.0236 36.806
rfemur -23.3393 4.6 24.3667
rtibia 27.9005
rfoot -18.4715 -18.2004
rtoes 3.59004
lfemur -26.8906 -5.75923 -22.8325
ltibia 32.8247
lfoot -24.9938 24.0727
ltoes 3.24283
2986
root -1.23417 15.6944 -5.87862 15.9331 -6.16167 -2.18678
lowerback -6.74902 -1.61157 1.71328
upperback -6.50108 -2.23405 0.417377
thorax -2.98781 -1.18749 -0.615774
lowerneck -13.8144 6.56034 13.4028
upperneck 33.7445 7.21823 -4.2672
head 14.6972 4.23474 -2.85663
rclavicle 2.52736e-014 9.54166e-015
rhumerus -36.4698 -2.79697 -77.5794
rradius 22.8245
rwrist 16.2747
rhand -10.4838 -6.49271
rfingers 7.12502
rthumb 15.5178 -35.89
lclavicle 2.52736e-014 9.54166e-015
lhumerus -33.8774 -20.3353 102.681
lradius 50.0191
lwrist -16.1501
lhand -2.11797 8.17039
lfingers 7.12502
lthumb 23.5602 36.7473
rfemur -23.2751 4.62707 24.3418
rtibia 27.9233
rfoot -18.521 -18.0464
rtoes 3.46091
lfemur -26.6293 -5.87807 -22.8286
ltibia 32.5536
lfoot -24.9135 24.1613
ltoes 4.00438
2987
root -1.22759 15.6918 -5.85833 15.8866 -6.36573 -2.20863
lowerback -6.81002 -1.55929 1.70991
upperback -6.52505 -2.16519 0.435856
thorax -2.97651 -1.15264 -0.593706
lowerneck -13.7625 6.57002 13.4419
upperneck 33.8058 7.22556 -4.25373
head 14.7171 4.2468 -2.85819
rclavicle -1.45486e-014 -1.78906e-015
rhumerus -36.294 -3.13801 -77.1075
rradius 22.6357
rwrist 16.606
rhand -10.5181 -6.68893
rfingers 7.12502
rthumb 15.4847 -36.0888
lclavicle -1.45486e-014 -1.78906e-015
lhumerus -34.2043 -20.913 103.004
lradius 50.6499
lwrist -15.6283
lhand -1.68279 8.23231
lfingers 7.12502
lthumb 23.9776 36.7549
rfemur -23.1627 4.67266 24.3138
rtibia 27.9347
rfoot -18.5689 -17.923
rtoes 3.33886
lfemur -26.3257 -5.93397 -22.8612
ltibia 32.3038
lfoot -24.831 24.2111
ltoes 4.84874
2988
root -1.22043 15.6893 -5.83767 15.8084 -6.55685 -2.22108
lowerback -6.83338 -1.51168 1.69312
upperback -6.54318 -2.10125 0.45311
thorax -2.97965 -1.11976 -0.564445
lowerneck -13.7075 6.57868 13.4767
upperneck 33.8594 7.23089 -4.23445
head 14.732 4.25816 -2.85693
rclavicle -1.58717e-015 -2.0276e-014
rhumerus -36.1111 -3.54576 -76.6122
rradius 22.43
rwrist 17.0486
rhand -10.5842 -6.81943
rfingers 7.12502
rthumb 15.421 -36.2242
lclavicle -1.58717e-015 -2.0276e-014
lhumerus -34.5291 -21.407 103.273
lradius 51.2382
lwrist -15.0634
lhand -1.3373 8.34717
lfingers 7.12502
lthumb 24.3089 36.8258
rfemur -23.0079 4.74154 24.2731
rtibia 27.9375
rfoot -18.615 -17.84
rtoes 3.21464
lfemur -25.9887 -5.96844 -22.9216
ltibia 32.0575
lfoot -24.737 24.2273
ltoes 5.75851
2989
root -1.21276 15.6872 -5.81659 15.6979 -6.73484 -2.22426
lowerback -6.82321 -1.46704 1.66421
upperback -6.55155 -2.04014 0.467228
thorax -2.99095 -1.08783 -0.530914
lowerneck -13.6536 6.58455 13.5144
upperneck 33.9031 7.23255 -4.21994
head 14.7424 4.26751 -2.85865
rclavicle -7.73397e-015 -1.13307e-014
rhumerus -35.9263 -3.99709 -76.113
rradius 22.2036
rwrist 17.5382
rhand -10.7193 -6.90318
rfingers 7.12502
rthumb 15.2909 -36.3179
lclavicle -7.73397e-015 -1.13307e-014
lhumerus -34.8435 -21.8196 103.486
lradius 51.7688
lwrist -14.4822
lhand -1.11667 8.4764
lfingers 7.12502
lthumb 24.5204 36.9265
rfemur -22.8104 4.83863 24.2194
rtibia 27.9328
rfoot -18.6609 -17.8002
rtoes 3.10202
lfemur -25.6235 -5.99389 -23.0011
ltibia 31.8046
lfoot -24.5964 24.254
ltoes 6.64022
2990
root -1.20462 15.6855 -5.79503 15.5651 -6.89508 -2.2102
lowerback -6.79472 -1.42536 1.61889
upperback -6.55373 -1.98206 0.473758
thorax -3.00574 -1.05689 -0.495756
lowerneck -13.5948 6.58561 13.5546
upperneck 33.9357 7.22668 -4.20496
head 14.7458 4.27389 -2.86193
rclavicle 6.70277e-015 -6.75868e-015
rhumerus -35.7457 -4.49728 -75.6102
rradius 21.9867
rwrist 18.0508
rhand -10.977 -6.85911
rfingers 7.12502
rthumb 15.0426 -36.2926
lclavicle 6.70277e-015 -6.75868e-015
lhumerus -35.1654 -22.1598 103.651
lradius 52.2374
lwrist -13.9308
lhand -1.04405 8.59541
lfingers 7.12502
lthumb 24.59 37.0361
rfemur -22.5832 4.96157 24.1438
rtibia 27.9238
rfoot -18.7099 -17.8059
rtoes 3.00192
lfemur -25.2474 -6.00734 -23.1017
ltibia 31.537
lfoot -24.3622 24.3166
ltoes 7.45598
2991
root -1.19614 15.6839 -5.77318 15.4251 -7.03538 -2.18568
lowerback -6.76261 -1.38681 1.5617
upperback -6.54986 -1.92767 0.477284
thorax -3.01607 -1.0273 -0.457265
lowerneck -13.5359 6.58048 13.5892
upperneck 33.9525 7.21264 -4.18919
head 14.7404 4.27587 -2.86523
rclavicle -2.85753e-014 4.37326e-015
rhumerus -35.5739 -5.03558 -75.1039
rradius 21.7837
rwrist 18.6019
rhand -11.1739 -6.86424
rfingers 7.12502
rthumb 14.853 -36.3119
lclavicle -2.85753e-014 4.37326e-015
lhumerus -35.4636 -22.4411 103.769
lradius 52.6371
lwrist -13.3789
lhand -1.12567 8.73169
lfingers 7.12502
lthumb 24.5117 37.183
rfemur -22.3445 5.10719 24.0546
rtibia 27.9114
rfoot -18.7579 -17.8555
rtoes 2.8968
lfemur -24.8747 -6.00034 -23.2126
ltibia 31.2591
lfoot -24.0498 24.416
ltoes 8.21007
